# Blender 5.0.0
# www.blender.org
mtllib SimpleTree.mtl
o Cube
v 0.172257 4.674191 -0.172257
v 0.172257 -1.207969 -0.172257
v 0.172257 4.674191 0.172257
v 0.172257 -1.207969 0.172257
v -0.172257 4.674191 -0.172257
v -0.172257 -1.207969 -0.172257
v -0.172257 4.674191 0.172257
v -0.172257 -1.207969 0.172257
v -1.618531 2.645666 1.618531
v 0.000000 5.882729 0.000000
v -1.618531 2.645666 -1.618531
v 1.618531 2.645666 1.618531
v 1.618531 2.645666 -1.618531
v -1.618531 1.697231 1.618531
v 0.000000 4.934293 0.000000
v -1.618531 1.697231 -1.618531
v 1.618531 1.697231 1.618531
v 1.618531 1.697231 -1.618531
vn 0.7065 0.0414 -0.7065
vn 0.7065 -0.0414 -0.7065
vn 0.7065 0.0414 0.7065
vn 0.7065 -0.0414 0.7065
vn -0.7065 0.0414 -0.7065
vn -0.7065 -0.0414 -0.7065
vn -0.7065 0.0414 0.7065
vn -0.7065 -0.0414 0.7065
vn -0.7071 -0.0018 0.7071
vn -0.0000 1.0000 -0.0000
vn -0.7071 -0.0017 -0.7071
vn 0.7071 -0.0017 0.7071
vn 0.7071 -0.0018 -0.7071
vt 0.324516 0.484077
vt 0.074516 0.734077
vt 0.074516 0.484077
vt 0.335486 0.750000
vt 0.085486 1.000000
vt 0.085486 0.750000
vt 0.249704 0.000000
vt -0.000296 0.250000
vt -0.000296 0.000000
vt 0.375000 0.500000
vt 0.125000 0.750000
vt 0.125000 0.500000
vt 0.104588 0.277766
vt 0.390923 -0.008570
vt 0.390923 0.277766
vt 0.081355 0.958162
vt 0.371265 0.671826
vt 0.367691 0.958162
vt 0.734211 0.000000
vt 0.984211 0.250000
vt 0.734211 0.250000
vt 0.803317 0.762778
vt 0.961843 0.616557
vt 0.961843 1.002048
vt 0.754102 0.146221
vt 0.912627 -0.000000
vt 0.912627 0.385491
vt 0.762509 0.146221
vt 0.921035 -0.000000
vt 0.921035 0.385491
vt 0.715575 0.814994
vt 0.588315 0.385491
vt 0.715575 0.385491
vt 0.559225 0.000000
vt 0.809225 0.250000
vt 0.559225 0.250000
vt 0.579028 0.619283
vt 0.840415 0.385491
vt 0.840415 0.736179
vt 0.642044 0.619283
vt 0.903431 0.385491
vt 0.903431 0.736179
vt 0.689957 0.739944
vt 0.939957 0.989944
vt 0.689957 0.989944
vt 0.937103 0.286335
vt 0.650768 0.000000
vt 0.937103 0.000000
vt 0.324516 0.734077
vt 0.335486 1.000000
vt 0.249704 0.250000
vt 0.364277 0.750000
vt 0.104588 -0.008570
vt 0.081355 0.671826
vt 0.588315 0.814994
vt 0.650768 0.286335
s 1
usemtl Material
f 5/1/5 3/2/3 1/3/1
f 3/4/3 8/5/8 4/6/4
f 7/7/7 6/8/6 8/9/8
f 2/10/2 8/11/8 6/12/6
f 1/13/1 4/14/4 2/15/2
f 5/16/5 2/17/2 6/18/6
f 5/1/5 7/49/7 3/2/3
f 3/4/3 7/50/7 8/5/8
f 7/7/7 5/51/5 6/8/6
f 2/10/2 4/52/4 8/11/8
f 1/13/1 3/53/3 4/14/4
f 5/16/5 1/54/1 2/17/2
usemtl Material.001
f 9/19/9 10/20/10 11/21/11
f 11/22/11 10/23/10 13/24/13
f 13/25/13 10/26/10 12/27/12
f 12/28/12 10/29/10 9/30/9
f 13/31/13 9/32/9 11/33/11
f 13/31/13 12/55/12 9/32/9
usemtl Material.002
f 14/34/9 15/35/10 16/36/11
f 16/37/11 15/38/10 18/39/13
f 18/40/13 15/41/10 17/42/12
f 17/43/12 15/44/10 14/45/9
f 18/46/13 14/47/9 16/48/11
f 18/46/13 17/56/12 14/47/9
